<svg width="149" height="21" viewBox="0 0 149 21" fill="none" xmlns="http://www.w3.org/2000/svg">
<path d="M3.08016 3.92002V18.76L5.32016 19.6V20.02H0.000156283V19.6L2.24016 18.76V1.26002L0.560156 0.840018V0.420018H4.06016C5.03082 0.420018 5.79616 0.625352 6.35616 1.03602C6.93482 1.42802 7.42949 2.01602 7.84016 2.80002L13.9442 14.476L18.6202 2.80002C18.9375 1.97869 19.3668 1.38135 19.9082 1.00802C20.4495 0.616018 21.2802 0.420018 22.4002 0.420018H25.3402V0.840018L23.6602 1.26002V19.18L25.3402 19.6V20.02H17.3602V19.6L19.0402 19.18V3.92002L12.4602 20.3H11.6202L3.08016 3.92002ZM27.8766 19.6L29.5566 19.18V1.26002L27.8766 0.840018V0.420018H42.8566V5.46002H42.0166C41.6619 5.18002 41.3539 4.82535 41.0926 4.39602C40.4952 3.38802 40.1966 2.29602 40.1966 1.12002H34.1766V9.94002H37.3966C37.5272 9.23069 37.7699 8.56802 38.1246 7.95202C38.2739 7.67202 38.4512 7.40135 38.6566 7.14002H39.4966V13.44H38.6566C38.4512 13.1787 38.2739 12.908 38.1246 12.628C37.7699 12.012 37.5272 11.3494 37.3966 10.64H34.1766V19.32H40.7566C40.7566 18.144 41.0552 17.052 41.6526 16.044C41.9139 15.6147 42.2219 15.26 42.5766 14.98H43.4166V20.02H27.8766V19.6ZM45.9234 19.6L47.6034 19.18V1.26002L45.9234 0.840018V0.420018H53.0634C56.4048 0.420018 58.9621 1.27868 60.7354 2.99602C62.5274 4.71335 63.4234 7.12135 63.4234 10.22C63.4234 13.3187 62.5274 15.7267 60.7354 17.444C58.9621 19.1614 56.4048 20.02 53.0634 20.02H45.9234V19.6ZM53.0634 19.32C54.7994 19.32 56.1434 18.62 57.0954 17.22C58.0474 15.8014 58.5234 13.468 58.5234 10.22C58.5234 6.97202 58.0474 4.64802 57.0954 3.24802C56.1434 1.82935 54.7994 1.12002 53.0634 1.12002H52.2234V19.32H53.0634Z" fill="#BFD2F8"/>
<path d="M65.9391 19.6L67.6191 19.18V1.26002L65.9391 0.840018V0.420018H73.0791C76.4204 0.420018 78.9777 1.27868 80.7511 2.99602C82.5431 4.71335 83.4391 7.12135 83.4391 10.22C83.4391 13.3187 82.5431 15.7267 80.7511 17.444C78.9777 19.1614 76.4204 20.02 73.0791 20.02H65.9391V19.6ZM73.0791 19.32C74.8151 19.32 76.1591 18.62 77.1111 17.22C78.0631 15.8014 78.5391 13.468 78.5391 10.22C78.5391 6.97202 78.0631 4.64802 77.1111 3.24802C76.1591 1.82935 74.8151 1.12002 73.0791 1.12002H72.2391V19.32H73.0791ZM85.9547 20.02V19.6L87.6347 19.18V1.26002L85.9547 0.840018V0.420018H93.9347V0.840018L92.2547 1.26002V19.18L93.9347 19.6V20.02H85.9547ZM106.108 20.44C103.121 20.44 100.788 19.5534 99.1081 17.78C97.4281 16.0067 96.5881 13.4867 96.5881 10.22C96.5881 8.07335 96.9521 6.23469 97.6801 4.70402C98.4268 3.15468 99.4628 1.98802 100.788 1.20402C102.132 0.401352 103.681 1.85966e-05 105.436 1.85966e-05C106.5 1.85966e-05 107.573 0.308019 108.656 0.924018C109.067 1.14802 109.477 1.44669 109.888 1.82002C110.205 1.33468 110.532 0.952018 110.868 0.672018C111.204 0.429351 111.391 0.298685 111.428 0.280018H112.128V5.60002H111.008C110.765 4.70402 110.401 3.89202 109.916 3.16402C109.468 2.45468 108.908 1.86669 108.236 1.40002C107.583 0.933352 106.827 0.700018 105.968 0.700018C104.68 0.700018 103.607 1.44668 102.748 2.94002C101.908 4.43335 101.488 6.86002 101.488 10.22C101.488 13.636 101.945 16.0814 102.86 17.556C103.793 19.012 105.063 19.74 106.668 19.74C107.545 19.74 108.376 19.4974 109.16 19.012C109.963 18.508 110.607 17.8454 111.092 17.024C111.596 16.2027 111.848 15.3347 111.848 14.42H112.548C112.548 15.484 112.259 16.4827 111.68 17.416C111.12 18.3307 110.345 19.068 109.356 19.628C108.385 20.1694 107.303 20.44 106.108 20.44ZM112.432 19.6L114.672 18.76L122.372 0.140018H123.212L131.192 19.18L132.592 19.6V20.02H129.232C128.262 20.02 127.468 19.8054 126.852 19.376C126.236 18.928 125.779 18.3494 125.48 17.64L124.052 14.28H117.36L115.512 18.76L117.612 19.6V20.02H112.432V19.6ZM117.64 13.58H123.772L120.692 6.21602L117.64 13.58ZM133.423 19.6L135.103 19.18V1.26002L133.423 0.840018V0.420018H141.403V0.840018L139.723 1.26002V19.32H145.743C145.743 18.144 146.042 17.052 146.639 16.044C146.901 15.6147 147.209 15.26 147.563 14.98H148.403V20.02H133.423V19.6Z" fill="#FCFEFE"/>
</svg>
